<svg id="eGdPWSbkr6t1" xmlns="http://www.w3.org/2000/svg" viewBox="0 0 640 360" shape-rendering="geometricPrecision" text-rendering="geometricPrecision"><ellipse rx="48.49741" ry="47.564767" transform="translate(213.367876 227.564767)" fill="#d2dbed" stroke-width="0"/><ellipse rx="48.49741" ry="47.564767" transform="translate(425.388601 227.564767)" fill="#d2dbed" stroke-width="0"/><line x1="-50.673575" y1="53.005181" x2="50.673575" y2="-53.005182" transform="translate(264.041451 126.994819)" fill="none" stroke="#3f5787" stroke-width="3"/><line x1="-45.388601" y1="-53.005182" x2="45.388601" y2="53.005181" transform="translate(360.103627 126.994819)" fill="none" stroke="#3f5787" stroke-width="3"/><path d="M287.979275,100.725389q26.735751,16.787564,49.740932-1.243524" fill="none" stroke="#3f5787" stroke-width="1.28"/><line x1="0" y1="-23.005181" x2="0" y2="23.005182" transform="translate(213.367876 222.590673)" fill="none" stroke="#3f5787" stroke-width="3"/><line x1="-21.139896" y1="0" x2="21.139896" y2="0" transform="translate(210.88083 222.590673)" fill="none" stroke="#3f5787" stroke-width="3"/><line x1="0" y1="19.274612" x2="0" y2="-19.274611" transform="translate(425.388601 226.321243)" fill="none" stroke="#3f5787" stroke-width="3"/><line x1="-13.989638" y1="0" x2="13.989637" y2="0" transform="translate(426.943006 226.321243)" fill="none" stroke="#3f5787" stroke-width="3"/><text dx="0" dy="0" font-family="&quot;eGdPWSbkr6t1:::Roboto&quot;" font-size="25" font-weight="400" transform="translate(178.784814 254.145078)" stroke-width="0"><tspan y="0" font-weight="400" stroke-width="0">
m</tspan></text><text dx="0" dy="0" font-family="&quot;eGdPWSbkr6t1:::Roboto&quot;" font-size="25" font-weight="400" transform="translate(394.536108 254.145078)" stroke-width="0"><tspan y="0" font-weight="400" stroke-width="0">
m</tspan></text><text dx="0" dy="0" font-family="&quot;eGdPWSbkr6t1:::Roboto&quot;" font-size="25" font-weight="400" transform="translate(244.455959 120.777202)" stroke-width="0"><tspan y="0" font-weight="400" stroke-width="0">
l
</tspan></text><text dx="0" dy="0" font-family="&quot;eGdPWSbkr6t1:::Roboto&quot;" font-size="25" font-weight="400" transform="translate(376.891191 120.777202)" stroke-width="0"><tspan y="0" font-weight="400" stroke-width="0">
l
</tspan></text><text dx="0" dy="0" font-family="&quot;eGdPWSbkr6t1:::Roboto&quot;" font-size="25" font-weight="400" transform="translate(307.914508 141.139899)" stroke-width="0"><tspan y="0" font-weight="400" stroke-width="0">
a
</tspan></text>
</svg>
