<svg id="ewgY5miOcVR1" xmlns="http://www.w3.org/2000/svg" xmlns:xlink="http://www.w3.org/1999/xlink" viewBox="0 0 640 360" shape-rendering="geometricPrecision" text-rendering="geometricPrecision"><ellipse rx="85.803109" ry="84.559586" transform="translate(221.450777 175.95855)" fill="rgba(210,219,237,0)" stroke="#000"/><line x1="0" y1="42.279793" x2="0" y2="-42.279793" transform="translate(221.450777 133.678757)" fill="none" stroke="#3f5787" stroke-width="3"/><line x1="-5.906735" y1="5.906735" x2="5.906735" y2="-5.906735" transform="translate(215.544042 97.3057)" fill="none" stroke="#3f5787" stroke-width="3"/><line x1="4.663212" y1="5.906735" x2="-4.663212" y2="-5.906735" transform="translate(226.11399 97.3057)" fill="none" stroke="#3f5787" stroke-width="3"/><line x1="-169.430052" y1="0" x2="169.430052" y2="0" transform="translate(390.880829 175.95855)" fill="none" stroke="#3f5787" stroke-width="3"/><line x1="-5.906735" y1="6.839378" x2="5.906736" y2="-6.839378" transform="translate(554.404145 182.797928)" fill="none" stroke="#3f5787" stroke-width="3"/><line x1="5.906736" y1="4.974093" x2="-5.906735" y2="-4.974094" transform="translate(554.404145 170.984457)" fill="none" stroke="#3f5787" stroke-width="3"/><line x1="0" y1="-4.507772" x2="0" y2="4.507772" transform="translate(416.062176 175.492228)" fill="none" stroke="#3f5787" stroke-width="3"/><line x1="0.310881" y1="4.507772" x2="-0.310881" y2="-4.507772" transform="translate(422.590674 175.492228)" fill="none" stroke="#3f5787" stroke-width="3"/><text dx="0" dy="0" font-family="&quot;ewgY5miOcVR1:::Roboto&quot;" font-size="25" font-weight="400" transform="translate(194.243848 142.22798)" stroke-width="0">
    <tspan y="0" font-weight="400" stroke-width="0">
R
</tspan></text><text dx="0" dy="0" font-family="&quot;ewgY5miOcVR1:::Roboto&quot;" font-size="16" font-weight="400" transform="translate(119.481865 181.398965)" stroke-width="0"><tspan y="0" font-weight="400" stroke-width="0">
q
</tspan></text><text dx="0" dy="0" font-family="&quot;ewgY5miOcVR1:::Roboto&quot;" font-size="16" font-weight="400" transform="translate(416.062176 197.720208)" stroke-width="0"><tspan y="0" font-weight="400" stroke-width="0">
λ
</tspan></text><text dx="0" dy="0" font-family="&quot;ewgY5miOcVR1:::Roboto&quot;" font-size="16" font-weight="400" transform="translate(409.995143 161.968912)" stroke-width="0"><tspan y="0" font-weight="400" stroke-width="0">
dl
</tspan></text>
<style></style>
</svg>
