<svg id="eNZTiuYb89p1" xmlns="http://www.w3.org/2000/svg" viewBox="0 0 300 300" shape-rendering="geometricPrecision" text-rendering="geometricPrecision" width="300" height="300"><ellipse rx="51.813472" ry="20.207254" transform="translate(150 94.300518)" fill="#d2dbed" stroke-width="0"/><ellipse rx="51.813472" ry="20.207254" transform="translate(150 216.062176)" fill="#d2dbed" stroke-width="0"/><line x1="-0.129534" y1="-60.880829" x2="0.129533" y2="60.880829" transform="translate(98.056995 155.181347)" fill="none" stroke="#3f5787"/><line x1="0" y1="60.880829" x2="0" y2="-60.880829" transform="translate(201.813472 155.181347)" fill="none" stroke="#3f5787"/><ellipse rx="26.683938" ry="11.139897" transform="translate(150 94.300518)" stroke-width="0"/><ellipse rx="26.683938" ry="11.139897" transform="translate(150 216.062176)" stroke-width="0"/><line x1="0" y1="-60.880829" x2="0" y2="60.880829" transform="translate(123.316062 155.181347)" fill="none" stroke="#3f5787"/><line x1="0" y1="60.880829" x2="0" y2="-60.880829" transform="translate(176.683938 155.181347)" fill="none" stroke="#3f5787"/><text dx="0" dy="0" font-family="&quot;eNZTiuYb89p1:::Roboto&quot;" font-size="15" font-weight="400" transform="translate(78.756478 155.181347)" stroke-width="0"><tspan y="0" font-weight="400" stroke-width="0">
l
</tspan><tspan x="0" y="30" font-weight="400" stroke-width="0"></tspan></text><text dx="0" dy="0" font-family="&quot;eNZTiuYb89p1:::Roboto&quot;" font-size="15" font-weight="400" transform="translate(176.683938 52.762932)" stroke-width="0"><tspan y="0" font-weight="400" stroke-width="0">
r1
</tspan></text><text dx="0" dy="0" font-family="&quot;eNZTiuYb89p1:::Roboto&quot;" font-size="15" font-weight="400" transform="translate(163.185214 257.746064)" stroke-width="0"><tspan y="0" font-weight="400" stroke-width="0">
r2
</tspan></text><line x1="10.616613" y1="-17.849902" x2="-10.616613" y2="17.849902" transform="translate(166.067326 76.450616)" fill="none" stroke="#3f5787" stroke-width="3"/><line x1="0" y1="5.569948" x2="0" y2="-5.569948" transform="translate(155.450713 88.73057)" fill="none" stroke="#3f5787" stroke-width="3"/><line x1="-5.308307" y1="0" x2="5.308306" y2="0" transform="translate(160.75902 94.300518)" fill="none" stroke="#3f5787" stroke-width="3"/><line x1="-4.893579" y1="13.861992" x2="4.893579" y2="-13.861992" transform="translate(181.577517 229.924168)" fill="none" stroke="#3f5787" stroke-width="3"/><line x1="0" y1="-5.569949" x2="0" y2="5.569948" transform="translate(186.471096 221.632125)" fill="none" stroke="#3f5787" stroke-width="3"/><line x1="-4.893579" y1="0" x2="4.893579" y2="0" transform="translate(181.577518 221.632125)" fill="none" stroke="#3f5787" stroke-width="3"/>
</svg>
