<svg id="eydOAs2o6Rj1" xmlns="http://www.w3.org/2000/svg" xmlns:xlink="http://www.w3.org/1999/xlink" viewBox="0 0 640 360" shape-rendering="geometricPrecision" text-rendering="geometricPrecision"><line x1="-161.658031" y1="0" x2="161.658031" y2="0" transform="translate(326.528497 180)" fill="none" stroke="#3f5787" stroke-width="3"/><text dx="0" dy="0" font-family="&quot;eydOAs2o6Rj1:::Roboto&quot;" font-size="25" font-weight="400" transform="translate(241.968912 214.507771)" stroke-width="0"><tspan y="0" font-weight="400" stroke-width="0">
λ,l</tspan></text><line x1="0" y1="-5.906736" x2="0" y2="5.906736" transform="translate(311.606218 180)" fill="none" stroke="#3f5787" stroke-width="3"/><line x1="0" y1="-5.906736" x2="0" y2="5.906736" transform="translate(320 180)" fill="none" stroke="#3f5787" stroke-width="3"/><text dx="0" dy="0" font-family="&quot;eydOAs2o6Rj1:::Roboto&quot;" font-size="16" font-weight="400" transform="matrix(.949647 0 0 0.999057 305.104187 167.867585)" stroke-width="0"><tspan y="0" font-weight="400" stroke-width="0">
dr
</tspan></text><text dx="0" dy="0" font-family="&quot;eydOAs2o6Rj1:::Roboto&quot;" font-size="16" font-weight="400" transform="translate(311.606218 207.046632)" stroke-width="0"><tspan y="0" font-weight="400" stroke-width="0">
dq
</tspan></text><line x1="0" y1="-5.906736" x2="0" y2="5.906736" transform="translate(386.839378 180)" fill="none" stroke="#3f5787" stroke-width="3"/><line x1="-84.093264" y1="0" x2="84.093264" y2="0" transform="translate(404.093264 143.005181)" fill="none" stroke="#3f5787" stroke-width="3"/><line x1="-3.264249" y1="4.04145" x2="3.264249" y2="-4.04145" transform="translate(323.264249 138.963731)" fill="none" stroke="#3f5787" stroke-width="3"/><line x1="-3.264249" y1="-4.041451" x2="3.264249" y2="4.041451" transform="translate(323.264249 147.046632)" fill="none" stroke="#3f5787" stroke-width="3"/><line x1="2.176165" y1="4.04145" x2="-2.176166" y2="-4.04145" transform="translate(486.010363 138.963731)" fill="none" stroke="#3f5787" stroke-width="3"/><line x1="1.088083" y1="-4.041451" x2="-1.088083" y2="4.041451" transform="translate(484.92228 147.046632)" fill="none" stroke="#3f5787" stroke-width="3"/><text dx="0" dy="0" font-family="&quot;eydOAs2o6Rj1:::Roboto&quot;" font-size="16" font-weight="400" transform="translate(398.677137 130.88083)" stroke-width="0"><tspan y="0" font-weight="400" stroke-width="0">
r
</tspan></text><line x1="0" y1="-5.906736" x2="0" y2="5.906736" transform="translate(486.010363 180)" fill="none" stroke="#3f5787" stroke-width="3"/><text dx="0" dy="0" font-family="&quot;eydOAs2o6Rj1:::Roboto&quot;" font-size="20" font-weight="400" transform="translate(479.486723 208.911917)" stroke-width="0"><tspan y="0" font-weight="400" stroke-width="0">
A
</tspan></text><text dx="0" dy="0" font-family="&quot;eydOAs2o6Rj1:::Roboto&quot;" font-size="16" font-weight="400" transform="translate(427.253886 191.347151)" stroke-width="0"><tspan y="0" font-weight="400" stroke-width="0">
a
</tspan></text>
<style></style>
</svg>
