<svg id="eijSrRofOC51" xmlns="http://www.w3.org/2000/svg" viewBox="0 0 640 360" shape-rendering="geometricPrecision" text-rendering="geometricPrecision"><line x1="0" y1="-124.663212" x2="0" y2="124.663213" transform="translate(399.896373 170.673576)" fill="none" stroke="#3f5787" stroke-width="3"/><line x1="-26.42487" y1="-32.331605" x2="26.42487" y2="32.331606" transform="translate(426.321244 327.668395)" fill="none" stroke="#3f5787" stroke-width="3"/><line x1="-26.42487" y1="22.694301" x2="26.42487" y2="-22.6943" transform="translate(426.321244 22.694301)" fill="none" stroke="#3f5787" stroke-width="3"/><line x1="0" y1="180" x2="0" y2="-179.999999" transform="translate(452.746114 180.000001)" fill="none" stroke="#3f5787" stroke-width="3"/><ellipse rx="2.797928" ry="3.57513" transform="matrix(1.444445 0 0 1.173921 130.362695 180)" stroke-width="0"/><line x1="-143.160622" y1="0" x2="143.160622" y2="0" transform="translate(283.160622 180)" fill="none" stroke="#000" stroke-width="3"/><line x1="3.57513" y1="4.663212" x2="-3.57513" y2="-4.663212" transform="translate(422.746115 175.336788)" fill="none" stroke="#000" stroke-width="3"/><line x1="3.57513" y1="-4.196891" x2="-3.57513" y2="4.196891" transform="translate(422.746115 184.196891)" fill="none" stroke="#000" stroke-width="3"/><line x1="-4.352331" y1="4.663212" x2="4.352332" y2="-4.663212" transform="translate(144.352332 175.336788)" fill="none" stroke="#000" stroke-width="3"/><line x1="-4.352331" y1="-4.196891" x2="4.352332" y2="4.196891" transform="translate(144.352333 184.196891)" fill="none" stroke="#02050c" stroke-width="3"/><text dx="0" dy="0" font-family="&quot;eijSrRofOC51:::Roboto&quot;" font-size="25" font-weight="400" transform="translate(122.590674 159.170984)" stroke-width="0"><tspan y="0" font-weight="400" stroke-width="0">
q
</tspan></text><text dx="0" dy="0" font-family="&quot;eijSrRofOC51:::Roboto&quot;" font-size="25" font-weight="400" transform="translate(285.492228 164.145078)" stroke-width="0"><tspan y="0" font-weight="400" stroke-width="0">
l
</tspan></text>
</svg>
